<svg xmlns="http://www.w3.org/2000/svg" width="32" height="32" viewBox="0 0 32 32" fill="none">
  <rect width="32" height="32" rx="8" fill="url(#paint0_linear)" />
  <path d="M16 8C11.5817 8 8 11.5817 8 16C8 20.4183 11.5817 24 16 24C20.4183 24 24 20.4183 24 16C24 11.5817 20.4183 8 16 8ZM16 22C12.6863 22 10 19.3137 10 16C10 12.6863 12.6863 10 16 10C19.3137 10 22 12.6863 22 16C22 19.3137 19.3137 22 16 22Z" fill="white"/>
  <path d="M16 12C14.3431 12 13 13.3431 13 15V17C13 18.6569 14.3431 20 16 20C17.6569 20 19 18.6569 19 17V15C19 13.3431 17.6569 12 16 12ZM17 17C17 17.5523 16.5523 18 16 18C15.4477 18 15 17.5523 15 17V15C15 14.4477 15.4477 14 16 14C16.5523 14 17 14.4477 17 15V17Z" fill="white"/>
  <defs>
    <linearGradient id="paint0_linear" x1="0" y1="0" x2="32" y2="32" gradientUnits="userSpaceOnUse">
      <stop stop-color="#4F46E5" />
      <stop offset="1" stop-color="#7C3AED" />
    </linearGradient>
  </defs>
</svg>